<?xml version="1.0" encoding="UTF-8"?>
<svg xmlns="http://www.w3.org/2000/svg" onmouseup="{ if(window.parent.document.onmouseup) window.parent.document.onmouseup(arguments[0]);}" viewBox="0 0 905.64 96.69" data-name="Capa 1" id="Capa_1"><defs><style>.cls-1{fill:#fff;}</style></defs><title/><path data-cppathid="10000" d="M33.47,39.52c-9.85,0-15.9-1-19.54-3.43A10.65,10.65,0,0,1,9.17,28.2h7.48a4.71,4.71,0,0,0,1.87,3.3c2,1.38,5.89,2.09,14.2,2.09,10.81,0,13.65-1.63,13.65-4.18S44.24,26,34.85,25.36c-1.75-.16-6.18-.41-7.68-.54C14,23.9,9.88,21,9.88,15.55c0-5.13,6.18-9.68,21-9.68,11.32,0,17.12,3,19.83,6.68a10.8,10.8,0,0,1,1.8,4.05H45a4.87,4.87,0,0,0-.88-1.88c-1.37-1.8-4.59-2.92-13.73-2.92C19.86,11.8,16.9,13,16.9,15.51c0,2.26,2.42,2.88,13.06,3.68,2,.12,7,.54,8.6.66,11.19.88,15,3.93,15,9.23C53.55,35.88,47.16,39.52,33.47,39.52Z" class="cls-1"/><path data-cppathid="10001" d="M70.66,21.69v8.39c0,3.05,1.33,4.18,5,4.18a42.32,42.32,0,0,0,6.05-.51v4.93a34.56,34.56,0,0,1-8.06.84c-5.59,0-9.43-1.8-9.43-8.1V21.69H57.13v-5.3h7.06c.17-1.55.17-5.89.17-5.89l6.22-.17v6.06H81.93v5.3Z" class="cls-1"/><path data-cppathid="10002" d="M123.38,34.38c-2.55,2.63-7.89,5.18-17.45,5.18-8.77,0-15.15-1.92-18-6.26a10.73,10.73,0,0,1-1.76-6.06,9.78,9.78,0,0,1,1.8-5.63c3-4.05,9.52-6.35,17.91-6.35,10.31,0,17.24,3.59,18.87,10a22.28,22.28,0,0,1,.58,4.38H92.61A4.12,4.12,0,0,0,94.49,32c2,1.71,5.89,2.8,11.82,2.8a25.83,25.83,0,0,0,9.47-1.46,6.84,6.84,0,0,0,2-1.51h7.09A7.06,7.06,0,0,1,123.38,34.38Zm-5.93-11.31c-1.54-1.63-5.59-2.92-11.73-2.92-5.84,0-10.48,1.25-12.11,3.13a3.76,3.76,0,0,0-1,2.17h26.18A3.39,3.39,0,0,0,117.45,23.07Z" class="cls-1"/><path data-cppathid="10003" d="M167.42,33.88c-2.93,3.51-8.35,5.51-15.28,5.51-5.18,0-11.86-1.25-14.11-4V46.78H131.6V16.1h6.22V20c1.75-2.42,7.51-4.55,14.36-4.55,7.76,0,12.82,2.09,15.4,5.51a10.63,10.63,0,0,1,2.17,6.51A10.06,10.06,0,0,1,167.42,33.88Zm-6-10.19c-2-2-5.81-3-10.94-3s-9.39,1.21-11.27,3.46a5.18,5.18,0,0,0-1.42,3.59,4.85,4.85,0,0,0,1.33,3.3c1.8,2,5.85,3.21,11.36,3.21,5.3,0,9.22-1.16,11.23-3.21a5.21,5.21,0,0,0,1.38-3.63A5,5,0,0,0,161.45,23.69Z" class="cls-1"/><path data-cppathid="10004" d="M192.08,39.52c-12.31,0-16.78-1.84-18.16-6.43a5.45,5.45,0,0,1-.29-1.55h6.3a2,2,0,0,0,.46,1.25c1,1.13,4.05,1.76,11.73,1.76,9.73,0,11.11-1.09,11.11-2.51,0-1.58-1.25-1.92-9.69-2.33-1.63-.09-4.55-.3-6.51-.42-9.23-.54-12.82-2.67-12.82-6.85,0-4.59,5.35-7.18,16-7.18s15.58,1.59,17.33,5.89A6.78,6.78,0,0,1,208,23h-6.31a2.38,2.38,0,0,0-.37-.87c-1-1.09-3.84-1.8-10.61-1.8-9.18,0-10.35.88-10.35,2.17s1,1.67,9,2.09c2,.13,5,.29,7,.38,9.72.37,13.06,2.5,13.06,7.05C209.32,36.89,204.65,39.52,192.08,39.52Z" class="cls-1"/><path data-cppathid="10005" d="M245,21.69V39h-6.48V21.69h-7.22v-5.3h7.22V14.3c0-5,3.18-8.73,11.11-8.73,2,0,6.55.17,7.64.34v5.38a64.07,64.07,0,0,0-7.06-.37c-4.21,0-5.34,1.5-5.34,3.76v1.71h12.48v5.3Z" class="cls-1"/><path data-cppathid="10006" d="M298.15,32.92c-2.84,4.09-8.94,6.6-18.37,6.6-8.89,0-15.2-2.51-18.16-6.52a10.14,10.14,0,0,1-1.84-5.59A8.86,8.86,0,0,1,261.53,22c3-4.09,9.06-6.72,18.25-6.72,9.52,0,15.36,2.92,18.2,6.6a9.19,9.19,0,0,1,.17,11Zm-6.27-8.81c-2.08-2-6.26-3.46-12.1-3.46S270,22,267.63,24.15a4.79,4.79,0,0,0,0,6.6c1.92,2.13,6.31,3.59,12.11,3.59,6.13,0,10.18-1.34,12.23-3.63a5,5,0,0,0,1.34-3.26A4.29,4.29,0,0,0,291.88,24.11Z" class="cls-1"/><path data-cppathid="10007" d="M331.75,22.23a38.53,38.53,0,0,0-7.35-.67c-5.64,0-11,3.05-11,9.15V39H307v-23h6.26v5.89c1.13-3.21,5.55-5.8,11.06-6.14a34,34,0,0,1,7.48.21Z" class="cls-1"/><path data-cppathid="10008" d="M400.2,30.71c-3,5.51-9.64,8.81-21.71,8.81s-19.12-3.64-22.29-8.65A15.7,15.7,0,0,1,354,22.65a14.29,14.29,0,0,1,1.92-7.56C359.16,9.71,366,5.7,378.12,5.7S396.45,9.25,400,14.8a12.2,12.2,0,0,1,1.67,4.59h-7.22a6.48,6.48,0,0,0-1.58-2.71c-2.22-2.42-7.14-4.63-14.78-4.63-8.1,0-14,2.38-16.24,6.55a8.59,8.59,0,0,0-.88,4,7.87,7.87,0,0,0,1.13,4.3c2.75,4.43,9.68,6.35,16,6.35,7.39,0,12.27-1.09,15.36-4.76A6.5,6.5,0,0,0,394.65,26h7.14A17.4,17.4,0,0,1,400.2,30.71Z" class="cls-1"/><path data-cppathid="10009" d="M409.67,39c-.25-.09-.42-.92-.42-2.34V9.25A15.61,15.61,0,0,0,409,6h6.43a19.33,19.33,0,0,1,.17,3.13V36.34c0,1.21.08,2.51.5,2.68Z" class="cls-1"/><path data-cppathid="10010" d="M460.47,34.38c-2.54,2.63-7.89,5.18-17.45,5.18-8.76,0-15.15-1.92-18-6.26a10.73,10.73,0,0,1-1.76-6.06,9.78,9.78,0,0,1,1.8-5.63c3-4.05,9.52-6.35,17.91-6.35,10.31,0,17.24,3.59,18.87,10a22.28,22.28,0,0,1,.58,4.38H429.71A4.06,4.06,0,0,0,431.58,32c2,1.71,5.89,2.8,11.82,2.8a25.94,25.94,0,0,0,9.48-1.46,6.79,6.79,0,0,0,2-1.51H462A7.1,7.1,0,0,1,460.47,34.38Zm-5.92-11.31c-1.55-1.63-5.6-2.92-11.74-2.92-5.84,0-10.47,1.25-12.1,3.13a3.64,3.64,0,0,0-1,2.17h26.17A3.41,3.41,0,0,0,454.55,23.07Z" class="cls-1"/><path data-cppathid="10011" d="M496.2,39a15.42,15.42,0,0,1-.37-2.63c-1.51,1.54-6.56,3.13-15.2,3.13-9.31,0-14.49-2.09-14.49-6.77v-.62c0-5,5-7.52,18.12-7.56,3.22,0,8.77.33,11.65.63a4.26,4.26,0,0,0-.67-2.43c-1-1.33-4.05-2.46-10.48-2.46-5.88,0-8.81.71-10,1.88a2.5,2.5,0,0,0-.54,1.38h-6.38a7.13,7.13,0,0,1,.37-1.8c1.46-4,6.6-6.47,16.24-6.47,10.9,0,15.78,2.42,17,7.56a23.87,23.87,0,0,1,.38,4.84c0,.84-.09,3.88-.09,5.76a18.62,18.62,0,0,0,.71,5.56ZM483.72,28.87c-6.14,0-9,.71-10.27,1.84a2,2,0,0,0-.54,1.37,1.48,1.48,0,0,0,.33,1.09c1,1.13,3.72,1.75,8.22,1.75,8.81,0,14.45-1,14.45-5.55C493.15,29.12,488.19,28.87,483.72,28.87Z" class="cls-1"/><path data-cppathid="10012" d="M538.86,39c-.29,0-.46-1.38-.46-11.19,0-4.55-3.09-6.89-9.89-6.89-5.81,0-11.11,2.71-11.11,6.93V39H511v-23h6.22v5.31c2.09-4.47,8.19-6,14.07-6,9.94,0,13.61,4.89,13.61,11.36,0,11.65.13,11.86.34,12.32Z" class="cls-1"/><path data-cppathid="10013" d="M554.72,12.92V6.33h6.72v6.59Zm.66,26.1c-.37-.09-.54-1.13-.54-3.47V16.05h6.51V35.51c0,2.59,0,3.17.59,3.51Z" class="cls-1"/><path data-cppathid="10014" d="M599.76,39c-.29,0-.46-1.38-.46-11.19,0-4.55-3.09-6.89-9.89-6.89-5.81,0-11.11,2.71-11.11,6.93V39h-6.43v-23h6.22v5.31c2.09-4.47,8.18-6,14.07-6,9.94,0,13.61,4.89,13.61,11.36,0,11.65.13,11.86.34,12.32Z" class="cls-1"/><path data-cppathid="10015" d="M641.29,17.18c1.84-1.54,6.93-1.84,9.23-1.46v4.47c-2.55,0-5.43.16-6.18.62a5.4,5.4,0,0,1,1.71,2.84,7.33,7.33,0,0,1-.13,2.67c-.91,3.84-5,6.39-15.57,6.39a37.55,37.55,0,0,1-10.14-1.29A1.29,1.29,0,0,0,619,32.71c0,1,.87,1.59,13.07,1.59,13.52,0,17.57,1.46,17.57,5.88,0,5.06-6.43,7.39-19.79,7.39-14.23,0-18.45-2.75-18.45-6,0-2.54,2.92-3.8,5.39-4.17-2-.75-3.39-2-3.39-3.89A3.8,3.8,0,0,1,617.37,30a6.57,6.57,0,0,1-4.47-5.47,6.77,6.77,0,0,1,0-2c.71-4.05,5.76-7.39,16.2-7.39C634.65,15.09,638.83,16,641.29,17.18ZM643,40.6c0-1.54-1.46-1.58-11.27-1.84-4-.08-9.48,0-11.94-.12-1.21.17-2.13.71-2.13,1.75,0,1.26,2,2.47,11.82,2.47C640.71,42.86,643,41.94,643,40.6Zm-23.84-17a4.64,4.64,0,0,0,0,1c.25,2.38,3.68,3.68,10.23,3.68,7.31,0,10.06-1.38,10.4-3.72a6.22,6.22,0,0,0,0-1.25c-.41-2.09-3.29-3.47-10.22-3.47C622.84,19.89,619.54,21.19,619.16,23.61Z" class="cls-1"/><path data-cppathid="10016" d="M38.4,89.1A16.06,16.06,0,0,1,38,86.47c-1.5,1.55-6.55,3.13-15.2,3.13-9.3,0-14.48-2.08-14.48-6.76v-.62c0-5,5-7.52,18.12-7.56,3.21,0,8.76.33,11.65.62a4.23,4.23,0,0,0-.67-2.42c-1-1.33-4-2.46-10.48-2.46-5.89,0-8.81.71-10,1.88a2.47,2.47,0,0,0-.54,1.38H10.05a7.16,7.16,0,0,1,.38-1.8c1.46-4,6.59-6.47,16.24-6.47,10.89,0,15.78,2.42,17,7.56A23.87,23.87,0,0,1,44,77.79c0,.83-.08,3.88-.08,5.76a18.17,18.17,0,0,0,.71,5.55ZM25.91,79c-6.13,0-9,.71-10.27,1.84a2,2,0,0,0-.54,1.37,1.45,1.45,0,0,0,.34,1.09c1,1.13,3.71,1.75,8.22,1.75,8.81,0,14.45-1,14.45-5.55C35.35,79.21,30.38,79,25.91,79Z" class="cls-1"/><path data-cppathid="10017" d="M81.06,89.1c-.3,0-.46-1.37-.46-11.18,0-4.56-3.09-6.89-9.9-6.89C64.9,71,59.6,73.74,59.6,78V89.1H53.17v-23h6.22v5.3c2.09-4.46,8.18-6,14.07-6,9.93,0,13.61,4.89,13.61,11.36,0,11.65.12,11.85.33,12.31Z" class="cls-1"/><path data-cppathid="10018" d="M126,69.86V56.21h6.34V86.35a22.55,22.55,0,0,0,.25,2.75H126.3l-.16-4.25c-2,3.08-7.94,4.71-14,4.71-8.44,0-13.86-2.08-16.41-5.8a10.48,10.48,0,0,1-1.92-6.1,10.91,10.91,0,0,1,1.88-6.3c2.5-3.8,7.68-6,15.7-6C118.12,65.39,123.63,66.77,126,69.86ZM101.5,74.07a5.48,5.48,0,0,0-1.25,3.55,5.19,5.19,0,0,0,1.25,3.51c2,2.25,6.1,3.34,12.11,3.34s10-1.17,11.61-3.67a5.49,5.49,0,0,0,.87-3.18A5.16,5.16,0,0,0,124.8,74c-2-2.17-5.93-3.3-11.73-3.3S103.26,71.9,101.5,74.07Z" class="cls-1"/><path data-cppathid="10019" d="M183.11,89.6c-9.85,0-15.91-1-19.54-3.42a10.65,10.65,0,0,1-4.76-7.89h7.47a4.74,4.74,0,0,0,1.88,3.3c2,1.38,5.89,2.09,14.2,2.09,10.81,0,13.65-1.63,13.65-4.18s-2.13-3.38-11.52-4c-1.76-.17-6.18-.42-7.68-.54-13.16-.92-17.29-3.8-17.29-9.27,0-5.13,6.18-9.68,21-9.68,11.32,0,17.12,3,19.83,6.68a10.8,10.8,0,0,1,1.8,4h-7.6a4.87,4.87,0,0,0-.88-1.88c-1.37-1.8-4.59-2.93-13.73-2.93-10.48,0-13.44,1.21-13.44,3.72,0,2.25,2.42,2.88,13.06,3.67,2,.13,7,.55,8.6.67,11.19.88,15,3.93,15,9.23C203.19,86,196.8,89.6,183.11,89.6Z" class="cls-1"/><path data-cppathid="10020" d="M238.5,89.1a16.06,16.06,0,0,1-.38-2.63c-1.5,1.55-6.55,3.13-15.19,3.13-9.31,0-14.49-2.08-14.49-6.76v-.62c0-5,5-7.52,18.12-7.56,3.21,0,8.77.33,11.65.62a4.23,4.23,0,0,0-.67-2.42c-1-1.33-4-2.46-10.48-2.46-5.89,0-8.81.71-10,1.88a2.47,2.47,0,0,0-.54,1.38h-6.39a7.16,7.16,0,0,1,.38-1.8c1.46-4,6.6-6.47,16.24-6.47,10.9,0,15.78,2.42,17,7.56a23.81,23.81,0,0,1,.38,4.84c0,.83-.09,3.88-.09,5.76a18.49,18.49,0,0,0,.71,5.55ZM226,79c-6.14,0-9,.71-10.27,1.84a2,2,0,0,0-.55,1.37,1.49,1.49,0,0,0,.34,1.09c1,1.13,3.71,1.75,8.22,1.75,8.81,0,14.45-1,14.45-5.55C235.45,79.21,230.48,79,226,79Z" class="cls-1"/><path data-cppathid="10021" d="M281.16,89.1c-.29,0-.46-1.37-.46-11.18,0-4.56-3.09-6.89-9.9-6.89-5.8,0-11.1,2.71-11.1,6.93V89.1h-6.43v-23h6.22v5.3c2.09-4.46,8.18-6,14.07-6,9.94,0,13.61,4.89,13.61,11.36,0,11.65.13,11.85.33,12.31Z" class="cls-1"/><path data-cppathid="10022" d="M297,63v-6.6h6.73V63Zm.67,26.09c-.37-.08-.54-1.12-.54-3.46V66.14h6.51V85.6c0,2.59,0,3.17.59,3.5Z" class="cls-1"/><path data-cppathid="10023" d="M323,71.78v8.39c0,3,1.33,4.17,5,4.17a43.9,43.9,0,0,0,6.05-.5v4.93a34.67,34.67,0,0,1-8.06.83c-5.59,0-9.43-1.79-9.43-8.09V71.78h-7.06v-5.3h7.06c.16-1.55.16-5.89.16-5.89l6.23-.17v6.06h11.35v5.3Z" class="cls-1"/><path data-cppathid="10024" d="M341.51,63v-6.6h6.72V63Zm.67,26.09c-.38-.08-.55-1.12-.55-3.46V66.14h6.52V85.6c0,2.59,0,3.17.58,3.5Z" class="cls-1"/><path data-cppathid="10025" d="M356.16,89.1V84.26l21-12.52h-20.5V66.48H388V71l-21.5,12.86h22.71V89.1Z" class="cls-1"/><path data-cppathid="10026" d="M396.44,63v-6.6h6.72V63Zm.67,26.09c-.38-.08-.55-1.12-.55-3.46V66.14h6.52V85.6c0,2.59,0,3.17.58,3.5Z" class="cls-1"/><path data-cppathid="10027" d="M441.48,89.1c-.29,0-.46-1.37-.46-11.18,0-4.56-3.09-6.89-9.89-6.89C425.32,71,420,73.74,420,78V89.1h-6.43v-23h6.22v5.3c2.09-4.46,8.19-6,14.07-6,9.94,0,13.61,4.89,13.61,11.36,0,11.65.13,11.85.34,12.31Z" class="cls-1"/><path data-cppathid="10028" d="M483,67.27c1.84-1.55,6.93-1.84,9.23-1.46v4.46c-2.55,0-5.43.17-6.18.63a5.4,5.4,0,0,1,1.71,2.84,7.11,7.11,0,0,1-.12,2.67c-.92,3.84-5,6.39-15.58,6.39a37.61,37.61,0,0,1-10.14-1.29,1.29,1.29,0,0,0-1.17,1.29c0,1,.88,1.59,13.07,1.59,13.52,0,17.57,1.46,17.57,5.88,0,5-6.43,7.39-19.79,7.39-14.23,0-18.45-2.75-18.45-6,0-2.55,2.92-3.8,5.39-4.17-2-.76-3.38-2-3.38-3.89A3.8,3.8,0,0,1,459.09,80a6.56,6.56,0,0,1-4.47-5.46,6.45,6.45,0,0,1,.05-2c.71-4,5.76-7.39,16.19-7.39C476.37,65.18,480.55,66.06,483,67.27Zm1.71,23.42c0-1.54-1.46-1.59-11.27-1.84-4-.08-9.47,0-11.94-.12-1.21.17-2.13.71-2.13,1.75,0,1.25,2,2.46,11.82,2.46C482.43,92.94,484.68,92,484.72,90.69Zm-23.83-17a4.12,4.12,0,0,0-.05,1c.25,2.38,3.68,3.68,10.23,3.68,7.31,0,10.06-1.38,10.4-3.72a6.91,6.91,0,0,0,0-1.25C481,71.36,478.13,70,471.2,70,464.56,70,461.26,71.28,460.89,73.7Z" class="cls-1"/><path data-cppathid="10029" d="M516.11,89.1V56.5h38.2v6H522.83v7.18H553.6v5.89H522.83V83h31.85V89.1Z" class="cls-1"/><path data-cppathid="10030" d="M592.83,96.87l-.21-.21V85.22c-2.88,3-8,4.34-14.94,4.34-7.48,0-12.57-1.92-15.2-5.34a11.26,11.26,0,0,1,.08-13.4c2.63-3.22,8.52-5.43,15.53-5.43,7.31,0,12.49,1.59,14.82,4.68,0-.8.05-3.8.05-3.8h5.84V93.86a15.86,15.86,0,0,0,.17,3ZM591.29,74c-2-2-6.06-3.26-11.82-3.26-5.05,0-9.77,1.17-11.48,3.43a5.23,5.23,0,0,0-1.25,3.5A5.36,5.36,0,0,0,568,81.21c1.84,2.22,5.85,3.3,11.82,3.3s10.06-1.17,11.85-3.71a5.72,5.72,0,0,0,1-3.22A4.83,4.83,0,0,0,591.29,74Z" class="cls-1"/><path data-cppathid="10031" d="M641.71,89.1h-6.26L635.28,85c-3,3.88-8.77,4.72-14.19,4.72-8.4,0-13.49-2.51-13.49-9.81,0-13.24-.17-13.4-.42-13.74h6.64c.21,0,.25,5.64.25,11.57,0,5,2.47,6.55,9.6,6.55,6.85,0,11.4-2.84,11.4-6.68V66.14h6.51V84.47C641.58,87.73,641.71,89,641.71,89.1Z" class="cls-1"/><path data-cppathid="10032" d="M651.76,63v-6.6h6.72V63Zm.67,26.09c-.37-.08-.54-1.12-.54-3.46V66.14h6.51V85.6c0,2.59,0,3.17.58,3.5Z" class="cls-1"/><path data-cppathid="10033" d="M704.74,84c-2.92,3.51-8.35,5.51-15.28,5.51-5.18,0-11.86-1.25-14.11-4V96.87h-6.43V66.18h6.22v3.89c1.75-2.42,7.51-4.55,14.36-4.55,7.76,0,12.82,2.08,15.4,5.51a10.63,10.63,0,0,1,2.17,6.51A10.06,10.06,0,0,1,704.74,84Zm-6-10.19c-2-2-5.81-3-10.94-3s-9.39,1.21-11.27,3.47a5.18,5.18,0,0,0-1.42,3.59,4.85,4.85,0,0,0,1.33,3.3c1.8,2,5.85,3.21,11.36,3.21,5.3,0,9.23-1.17,11.23-3.21a5.23,5.23,0,0,0,1.38-3.63A5,5,0,0,0,698.77,73.78Z" class="cls-1"/><path data-cppathid="10034" d="M762.84,78c0-3.76-1.75-6.93-8.93-6.93-5,0-9.31,2-9.31,6.93V89.1h-6V77.41c0-3.92-3.51-6.38-8.69-6.38-5.84,0-9.51,3.29-9.51,6.8V89.1H714v-23h6.22v5.3c1.63-3.92,6.89-5.88,11.94-5.88,5.3,0,10,1.75,11.52,6,1.75-3.93,6.05-6,12.19-6,9.39,0,12.61,4.59,12.61,11.23,0,11.73,0,12,.42,12.31h-5.6C762.84,89.1,762.84,86.64,762.84,78Z" class="cls-1"/><path data-cppathid="10035" d="M812.68,84.47c-2.55,2.63-7.89,5.18-17.45,5.18-8.77,0-15.16-1.92-18-6.27a10.74,10.74,0,0,1-1.75-6,9.91,9.91,0,0,1,1.79-5.64c3-4,9.52-6.34,17.91-6.34,10.31,0,17.24,3.59,18.87,10a21.57,21.57,0,0,1,.59,4.38H781.91a4.12,4.12,0,0,0,1.88,2.38c2,1.71,5.88,2.8,11.81,2.8a25.9,25.9,0,0,0,9.48-1.46,7,7,0,0,0,2-1.51h7.1A7.14,7.14,0,0,1,812.68,84.47Zm-5.93-11.31c-1.55-1.63-5.6-2.93-11.73-2.93-5.85,0-10.48,1.26-12.11,3.13a3.69,3.69,0,0,0-1,2.18h26.17A3.4,3.4,0,0,0,806.75,73.16Z" class="cls-1"/><path data-cppathid="10036" d="M848.78,89.1c-.29,0-.46-1.37-.46-11.18,0-4.56-3.09-6.89-9.89-6.89-5.81,0-11.11,2.71-11.11,6.93V89.1h-6.43v-23h6.22v5.3c2.09-4.46,8.19-6,14.07-6,9.94,0,13.61,4.89,13.61,11.36,0,11.65.13,11.85.34,12.31Z" class="cls-1"/><path data-cppathid="10037" d="M873,71.78v8.39c0,3,1.33,4.17,5,4.17a43.9,43.9,0,0,0,6-.5v4.93a34.67,34.67,0,0,1-8.06.83c-5.59,0-9.43-1.79-9.43-8.09V71.78H859.5v-5.3h7.06c.16-1.55.16-5.89.16-5.89l6.22-.17v6.06H884.3v5.3Z" class="cls-1"/></svg>