<?xml version="1.0" encoding="UTF-8"?>
<svg xmlns="http://www.w3.org/2000/svg" onmouseup="{ if(window.parent.document.onmouseup) window.parent.document.onmouseup(arguments[0]);}" viewBox="0 0 683.56 96.69" data-name="Capa 1" id="Capa_1"><defs><style>.cls-1{fill:#fff;}</style></defs><title/><path data-cppathid="10000" d="M25.38,37.22V63.73H18.54V37.22H.17v-6.1h43.5v6.1Z" class="cls-1"/><path data-cppathid="10001" d="M83.11,63.73H76.6c-.33-.5-.42-1.71-.42-11.23,0-4.51-3-6.85-9.93-6.85-5.85,0-11.07,2.67-11.07,7.1v11H48.75V30.58H55V46.11c2.05-4.17,7.18-6,14.07-6,9.15,0,13.61,4.13,13.61,11.06C82.65,62.81,82.74,63.6,83.11,63.73Z" class="cls-1"/><path data-cppathid="10002" d="M126.69,59.09c-2.55,2.63-7.89,5.18-17.45,5.18-8.77,0-15.16-1.92-18-6.26a10.76,10.76,0,0,1-1.75-6,9.88,9.88,0,0,1,1.79-5.64c3-4,9.52-6.35,17.91-6.35,10.32,0,17.25,3.59,18.87,10a21.57,21.57,0,0,1,.59,4.38H95.92a4.06,4.06,0,0,0,1.88,2.38c2,1.72,5.89,2.8,11.81,2.8a25.86,25.86,0,0,0,9.48-1.46,6.64,6.64,0,0,0,2-1.5h7.1A7.11,7.11,0,0,1,126.69,59.09Zm-5.93-11.31c-1.54-1.63-5.59-2.92-11.73-2.92-5.85,0-10.48,1.25-12.11,3.13a3.7,3.7,0,0,0-1,2.17H122.1A3.45,3.45,0,0,0,120.76,47.78Z" class="cls-1"/><path data-cppathid="10003" d="M185.17,63.73h-30.6V31.12h28.26c5.3,0,8.14,1.09,9.85,2.76a7.15,7.15,0,0,1,2.13,5.43A7.83,7.83,0,0,1,193.43,44a5.65,5.65,0,0,1-3.84,2.3,10.64,10.64,0,0,1,6.56,2.54,8,8,0,0,1,2,5.56,9.64,9.64,0,0,1-1.63,5.8C194.73,62.52,190.8,63.73,185.17,63.73Zm1.42-25.68c-1-.92-2.76-1.17-4.85-1.17H161.2v7.48h21.21c1.88,0,3.59-.34,4.47-1.25a3.65,3.65,0,0,0,.83-2.55A3.07,3.07,0,0,0,186.59,38.05Zm4.55,15.74a3.14,3.14,0,0,0-1.09-2.46c-1-.84-2.38-1.25-5.51-1.25H161.2V58h23.13c3.47,0,5.18-.71,6-1.71A3.61,3.61,0,0,0,191.14,53.79Z" class="cls-1"/><path data-cppathid="10004" d="M239.51,63.73h-6.26l-.17-4.13c-3,3.88-8.76,4.71-14.19,4.71-8.39,0-13.49-2.5-13.49-9.81,0-13.23-.16-13.4-.41-13.73h6.63c.21,0,.25,5.63.25,11.56,0,5,2.47,6.56,9.61,6.56,6.84,0,11.39-2.84,11.39-6.68V40.77h6.52V59.09C239.39,62.35,239.51,63.6,239.51,63.73Z" class="cls-1"/><path data-cppathid="10005" d="M278.58,50c-.79-3-4.72-4.59-12.19-4.59-5.93,0-10.23,1.25-12.32,3.67A5.07,5.07,0,0,0,253,52.29a5.21,5.21,0,0,0,1.17,3.3c1.87,2.34,6.51,3.46,12.31,3.46s9-.83,10.65-2.17A5.9,5.9,0,0,0,278.54,55h6.51a9.39,9.39,0,0,1-1.92,4.1c-2.71,3.09-7.93,5.09-16.74,5.09-9.14,0-15.28-2.25-18-5.89a9.93,9.93,0,0,1-1.93-6.18,9.48,9.48,0,0,1,2-6c3-3.79,9.22-6.17,18-6.17,9,0,14.49,2.25,17,6A10,10,0,0,1,284.93,50Z" class="cls-1"/><path data-cppathid="10006" d="M320.15,63.73,307.84,53l-9.23,5.43v5.3h-6.43V30.58h6.39V52.33l19.25-11.56h9l-14.07,8.89,15.74,14.07Z" class="cls-1"/><path data-cppathid="10007" d="M367.28,59.09c-2.55,2.63-7.89,5.18-17.45,5.18-8.77,0-15.16-1.92-18-6.26A10.76,10.76,0,0,1,330,52a9.81,9.81,0,0,1,1.8-5.64c3-4,9.51-6.35,17.91-6.35,10.31,0,17.24,3.59,18.87,10a22.28,22.28,0,0,1,.58,4.38H336.51a4.06,4.06,0,0,0,1.88,2.38c2,1.72,5.89,2.8,11.81,2.8a25.86,25.86,0,0,0,9.48-1.46,6.82,6.82,0,0,0,2-1.5h7.09A7.11,7.11,0,0,1,367.28,59.09Zm-5.93-11.31c-1.54-1.63-5.59-2.92-11.73-2.92-5.85,0-10.48,1.25-12.11,3.13a3.76,3.76,0,0,0-1,2.17h26.18A3.41,3.41,0,0,0,361.35,47.78Z" class="cls-1"/><path data-cppathid="10008" d="M384.3,46.4v8.39c0,3.05,1.34,4.18,5,4.18a44.05,44.05,0,0,0,6.06-.5v4.92a34.56,34.56,0,0,1-8.06.84c-5.6,0-9.44-1.8-9.44-8.1V46.4h-7.05V41.1h7.05c.17-1.54.17-5.89.17-5.89l6.22-.16V41.1h11.36v5.3Z" class="cls-1"/><path data-cppathid="10009" d="M464.74,63.73V40.22L450,63.73h-6.89L428.67,40.22V63.73h-6.59V31.12h8.51l16.12,26.1,16.2-26.1h8.43V63.73Z" class="cls-1"/><path data-cppathid="10010" d="M516.54,59.09c-2.55,2.63-7.89,5.18-17.45,5.18-8.77,0-15.15-1.92-18-6.26a10.7,10.7,0,0,1-1.76-6,9.81,9.81,0,0,1,1.8-5.64c3-4,9.52-6.35,17.91-6.35,10.31,0,17.24,3.59,18.87,10a22.28,22.28,0,0,1,.58,4.38H485.77a4.06,4.06,0,0,0,1.88,2.38c2,1.72,5.89,2.8,11.82,2.8a25.83,25.83,0,0,0,9.47-1.46,6.82,6.82,0,0,0,2-1.5H518A7.11,7.11,0,0,1,516.54,59.09Zm-5.93-11.31c-1.54-1.63-5.59-2.92-11.73-2.92-5.84,0-10.48,1.25-12.11,3.13a3.76,3.76,0,0,0-1,2.17H512A3.41,3.41,0,0,0,510.61,47.78Z" class="cls-1"/><path data-cppathid="10011" d="M533.57,46.4v8.39c0,3.05,1.33,4.18,5,4.18a43.92,43.92,0,0,0,6.06-.5v4.92a34.56,34.56,0,0,1-8.06.84c-5.59,0-9.43-1.8-9.43-8.1V46.4H520V41.1h7.06c.16-1.54.16-5.89.16-5.89l6.22-.16V41.1h11.36v5.3Z" class="cls-1"/><path data-cppathid="10012" d="M586,63.73h-6.51c-.34-.5-.42-1.71-.42-11.23,0-4.51-3-6.85-9.94-6.85-5.84,0-11.06,2.67-11.06,7.1v11h-6.43V30.58h6.22V46.11c2.05-4.17,7.18-6,14.07-6,9.14,0,13.61,4.13,13.61,11.06C585.58,62.81,585.66,63.6,586,63.73Z" class="cls-1"/><path data-cppathid="10013" d="M630.66,57.63c-2.84,4.09-8.93,6.6-18.37,6.6-8.89,0-15.2-2.51-18.16-6.51a10.17,10.17,0,0,1-1.84-5.6,8.82,8.82,0,0,1,1.76-5.38c3-4.09,9.06-6.72,18.24-6.72,9.52,0,15.36,2.92,18.2,6.59a9.19,9.19,0,0,1,.17,11Zm-6.26-8.81c-2.09-2-6.27-3.46-12.11-3.46s-9.77,1.34-12.15,3.51a4.8,4.8,0,0,0,0,6.59c1.92,2.13,6.31,3.59,12.11,3.59,6.14,0,10.19-1.33,12.23-3.63a5,5,0,0,0,1.34-3.26A4.32,4.32,0,0,0,624.4,48.82Z" class="cls-1"/><path data-cppathid="10014" d="M668.93,44.48V30.83h6.35V61a22.81,22.81,0,0,0,.25,2.76h-6.26l-.17-4.26c-2,3.09-7.93,4.72-14,4.72-8.43,0-13.86-2.09-16.4-5.81a10.45,10.45,0,0,1-1.92-6.09,10.9,10.9,0,0,1,1.87-6.3c2.51-3.8,7.69-6,15.7-6C661.08,40,666.6,41.39,668.93,44.48ZM644.47,48.7a5.39,5.39,0,0,0-1.25,3.55,5.11,5.11,0,0,0,1.25,3.5c2,2.26,6.09,3.34,12.11,3.34s10-1.16,11.6-3.67a5.39,5.39,0,0,0,.88-3.17,5.14,5.14,0,0,0-1.3-3.59c-2-2.17-5.92-3.3-11.73-3.3S646.22,46.53,644.47,48.7Z" class="cls-1"/></svg>