<?xml version="1.0" encoding="UTF-8"?>
<svg xmlns="http://www.w3.org/2000/svg" onmouseup="{ if(window.parent.document.onmouseup) window.parent.document.onmouseup(arguments[0]);}" viewBox="0 0 329.67 96.69" data-name="Capa 1" id="Capa_1"><defs><style>.cls-1{fill:#fff;}</style></defs><title/><path data-cppathid="10000" d="M96.06,57.84H71.93V25.24H96c9.68,0,15.11,3,17.49,8.09a19.29,19.29,0,0,1,1.5,7.85,20.8,20.8,0,0,1-1.5,8.14C111.09,54.67,105.58,57.84,96.06,57.84Zm12-16.36a12.62,12.62,0,0,0-1-5.31C105.33,32.79,101.57,31,95.1,31H78.69V52h16c6.85,0,10.69-1.72,12.4-5.06A12.63,12.63,0,0,0,108,41.48Z" class="cls-1"/><path data-cppathid="10001" d="M147.15,41.06a38.53,38.53,0,0,0-7.35-.67c-5.63,0-11,3-11,9.14v8.31h-6.47v-23h6.26v5.89c1.13-3.22,5.56-5.81,11.07-6.14a33.91,33.91,0,0,1,7.47.21Z" class="cls-1"/><path data-cppathid="10002" d="M179,57.84a16.06,16.06,0,0,1-.38-2.63c-1.5,1.55-6.55,3.13-15.19,3.13-9.32,0-14.49-2.09-14.49-6.76V51c0-5,5-7.51,18.12-7.55,3.21,0,8.76.33,11.64.62A4.19,4.19,0,0,0,178,41.6c-1-1.34-4-2.46-10.48-2.46-5.89,0-8.81.71-10,1.88a2.44,2.44,0,0,0-.54,1.37h-6.39A7.09,7.09,0,0,1,151,40.6c1.46-4,6.59-6.47,16.24-6.47,10.89,0,15.78,2.42,17,7.55a23.33,23.33,0,0,1,.37,4.85c0,.83-.08,3.88-.08,5.76a18.27,18.27,0,0,0,.71,5.55ZM166.52,47.7c-6.14,0-9,.71-10.28,1.83a2,2,0,0,0-.54,1.38A1.46,1.46,0,0,0,156,52c1,1.12,3.71,1.75,8.22,1.75,8.81,0,14.44-1,14.44-5.55C176,48,171,47.7,166.52,47.7Z" class="cls-1"/><path data-cppathid="10003" d="M194.19,31.75v-6.6h6.72v6.6Zm.66,26.09c-.37-.08-.54-1.13-.54-3.46V34.88h6.51V54.33c0,2.59,0,3.18.59,3.51Z" class="cls-1"/><path data-cppathid="10004" d="M239.23,57.84c-.29,0-.46-1.38-.46-11.19,0-4.55-3.09-6.89-9.9-6.89-5.8,0-11.1,2.72-11.1,6.93V57.84h-6.43v-23h6.22v5.3c2.09-4.47,8.18-6,14.07-6,9.94,0,13.61,4.88,13.61,11.36,0,11.64.12,11.85.33,12.31Z" class="cls-1"/><path data-cppathid="10005" d="M270.07,58.34c-12.31,0-16.78-1.84-18.16-6.43a5.45,5.45,0,0,1-.29-1.54h6.3a2,2,0,0,0,.46,1.25c1,1.13,4.05,1.75,11.73,1.75,9.73,0,11.11-1.08,11.11-2.5,0-1.59-1.25-1.92-9.69-2.34-1.63-.08-4.55-.29-6.51-.42-9.23-.54-12.82-2.67-12.82-6.84,0-4.6,5.35-7.18,16-7.18s15.58,1.58,17.33,5.88a6.84,6.84,0,0,1,.38,1.84h-6.31a2.68,2.68,0,0,0-.37-.88c-1-1.08-3.84-1.79-10.61-1.79-9.18,0-10.35.87-10.35,2.17s1,1.67,9,2.09c2,.12,5,.29,7,.37,9.72.38,13.06,2.51,13.06,7.06C287.31,55.71,282.64,58.34,270.07,58.34Z" class="cls-1"/></svg>