<?xml version="1.0" encoding="UTF-8"?>
<svg xmlns="http://www.w3.org/2000/svg" onmouseup="{ if(window.parent.document.onmouseup) window.parent.document.onmouseup(arguments[0]);}" viewBox="0 0 802.83 95.58" data-name="Capa 1" id="Capa_1"><defs><style>.cls-1{fill:#fff;}</style></defs><title/><path data-cppathid="10000" d="M48.76,27.17C45.8,32.68,39.12,36,27.05,36S7.93,32.35,4.76,27.34A15.77,15.77,0,0,1,2.5,19.11a14.26,14.26,0,0,1,1.93-7.55c3.29-5.39,10.1-9.4,22.25-9.4S45,5.71,48.55,11.26a12.41,12.41,0,0,1,1.67,4.6H43a6.37,6.37,0,0,0-1.59-2.72c-2.21-2.42-7.13-4.63-14.77-4.63-8.1,0-14,2.38-16.24,6.55a8.62,8.62,0,0,0-.88,4,7.79,7.79,0,0,0,1.13,4.3c2.75,4.43,9.68,6.35,16,6.35C34.07,29.76,39,28.67,42,25a6.46,6.46,0,0,0,1.17-2.5h7.14A17.34,17.34,0,0,1,48.76,27.17Z" class="cls-1"/><path data-cppathid="10001" d="M58.23,35.48c-.25-.08-.42-.92-.42-2.34V5.71a15.49,15.49,0,0,0-.21-3.25H64a19.25,19.25,0,0,1,.17,3.13V32.81c0,1.21.08,2.5.5,2.67Z" class="cls-1"/><path data-cppathid="10002" d="M109,30.84C106.49,33.47,101.14,36,91.58,36c-8.77,0-15.15-1.92-18-6.26a10.7,10.7,0,0,1-1.76-6.05,9.81,9.81,0,0,1,1.8-5.64c3-4.05,9.52-6.35,17.91-6.35,10.31,0,17.24,3.59,18.87,10a22.38,22.38,0,0,1,.58,4.38H78.26a4.06,4.06,0,0,0,1.88,2.38c2,1.72,5.89,2.8,11.82,2.8a25.83,25.83,0,0,0,9.47-1.46,6.82,6.82,0,0,0,2-1.5h7.1A7.15,7.15,0,0,1,109,30.84ZM103.1,19.53c-1.54-1.63-5.59-2.92-11.73-2.92-5.84,0-10.48,1.25-12.1,3.13a3.74,3.74,0,0,0-1,2.17h26.18A3.41,3.41,0,0,0,103.1,19.53Z" class="cls-1"/><path data-cppathid="10003" d="M144.76,35.48a16.06,16.06,0,0,1-.38-2.63c-1.5,1.54-6.55,3.13-15.19,3.13-9.31,0-14.49-2.09-14.49-6.76v-.63c0-5,5-7.51,18.12-7.56,3.22,0,8.77.34,11.65.63a4.21,4.21,0,0,0-.67-2.42c-1-1.34-4.05-2.46-10.48-2.46-5.88,0-8.81.71-10,1.87A2.5,2.5,0,0,0,122.8,20h-6.39a7.09,7.09,0,0,1,.38-1.79c1.46-4,6.6-6.47,16.24-6.47,10.9,0,15.78,2.42,17,7.55a24,24,0,0,1,.38,4.85c-.05.83-.09,3.88-.09,5.76a18.6,18.6,0,0,0,.71,5.55ZM132.28,25.33c-6.14,0-9,.71-10.27,1.84a2,2,0,0,0-.54,1.38,1.47,1.47,0,0,0,.33,1.08c1,1.13,3.71,1.76,8.22,1.76,8.81,0,14.45-1,14.45-5.56C141.71,25.58,136.75,25.33,132.28,25.33Z" class="cls-1"/><path data-cppathid="10004" d="M187.42,35.48c-.29,0-.46-1.38-.46-11.19,0-4.55-3.09-6.89-9.89-6.89-5.81,0-11.11,2.72-11.11,6.93V35.48h-6.43v-23h6.22v5.3c2.09-4.47,8.18-6,14.07-6,9.94,0,13.61,4.88,13.61,11.35,0,11.65.13,11.86.33,12.32Z" class="cls-1"/><path data-cppathid="10005" d="M203.28,9.39V2.79H210v6.6Zm.66,26.09c-.37-.08-.54-1.13-.54-3.47V12.52h6.51V32c0,2.59.05,3.17.59,3.51Z" class="cls-1"/><path data-cppathid="10006" d="M248.32,35.48c-.29,0-.46-1.38-.46-11.19,0-4.55-3.09-6.89-9.9-6.89-5.8,0-11.1,2.72-11.1,6.93V35.48h-6.43v-23h6.22v5.3c2.09-4.47,8.18-6,14.07-6,9.94,0,13.61,4.88,13.61,11.35,0,11.65.12,11.86.33,12.32Z" class="cls-1"/><path data-cppathid="10007" d="M289.85,13.64c1.84-1.54,6.93-1.83,9.23-1.46v4.47c-2.55,0-5.43.17-6.18.63a5.36,5.36,0,0,1,1.71,2.84,7.34,7.34,0,0,1-.13,2.67c-.92,3.84-5.05,6.38-15.57,6.38a37.55,37.55,0,0,1-10.14-1.29,1.3,1.3,0,0,0-1.17,1.29c0,1,.87,1.59,13.06,1.59,13.53,0,17.58,1.46,17.58,5.89,0,5.05-6.43,7.39-19.79,7.39C264.22,44,260,41.28,260,38c0-2.55,2.92-3.8,5.38-4.18-2-.75-3.38-2.05-3.38-3.88a3.8,3.8,0,0,1,3.93-3.55A6.56,6.56,0,0,1,261.46,21a6.71,6.71,0,0,1,0-2c.71-4,5.76-7.39,16.2-7.39C283.21,11.56,287.39,12.43,289.85,13.64Zm1.71,23.43c0-1.55-1.46-1.59-11.27-1.84-4-.09-9.48,0-11.94-.13-1.21.17-2.13.71-2.13,1.76,0,1.25,2,2.46,11.81,2.46C289.26,39.32,291.52,38.4,291.56,37.07Zm-23.84-17a4.7,4.7,0,0,0,0,1.05c.25,2.38,3.67,3.67,10.23,3.67,7.3,0,10.06-1.38,10.39-3.71a6.21,6.21,0,0,0,0-1.26c-.42-2.08-3.3-3.46-10.23-3.46C271.4,16.36,268.1,17.65,267.72,20.07Z" class="cls-1"/><path data-cppathid="10008" d="M349.5,35.48a16.06,16.06,0,0,1-.38-2.63c-1.5,1.54-6.55,3.13-15.2,3.13-9.31,0-14.48-2.09-14.48-6.76v-.63c0-5,5-7.51,18.12-7.56,3.21,0,8.76.34,11.64.63a4.19,4.19,0,0,0-.66-2.42c-1.05-1.34-4.05-2.46-10.48-2.46-5.89,0-8.81.71-10,1.87a2.5,2.5,0,0,0-.54,1.38h-6.39a7.52,7.52,0,0,1,.37-1.79c1.47-4,6.6-6.47,16.24-6.47,10.9,0,15.78,2.42,17,7.55a24,24,0,0,1,.37,4.85c0,.83-.08,3.88-.08,5.76a18.27,18.27,0,0,0,.71,5.55ZM337,25.33c-6.13,0-9,.71-10.27,1.84a2,2,0,0,0-.54,1.38,1.47,1.47,0,0,0,.33,1.08c1,1.13,3.72,1.76,8.23,1.76,8.81,0,14.44-1,14.44-5.56C346.45,25.58,341.48,25.33,337,25.33Z" class="cls-1"/><path data-cppathid="10009" d="M392.15,35.48c-.29,0-.46-1.38-.46-11.19,0-4.55-3.08-6.89-9.89-6.89-5.8,0-11.1,2.72-11.1,6.93V35.48h-6.43v-23h6.22v5.3c2.08-4.47,8.18-6,14.07-6,9.93,0,13.61,4.88,13.61,11.35,0,11.65.12,11.86.33,12.32Z" class="cls-1"/><path data-cppathid="10010" d="M437.07,16.23V2.58h6.34V32.72a22.81,22.81,0,0,0,.25,2.76H437.4l-.17-4.26c-2,3.09-7.93,4.72-14,4.72-8.44,0-13.86-2.09-16.41-5.81A10.45,10.45,0,0,1,404.88,24a10.91,10.91,0,0,1,1.88-6.3c2.5-3.8,7.68-6,15.7-6C429.22,11.77,434.73,13.14,437.07,16.23ZM412.6,20.45A5.44,5.44,0,0,0,411.35,24a5.16,5.16,0,0,0,1.25,3.5c2,2.26,6.1,3.34,12.11,3.34s10-1.16,11.61-3.67a5.46,5.46,0,0,0,.87-3.17,5.13,5.13,0,0,0-1.29-3.59c-2-2.17-5.93-3.3-11.73-3.3S414.36,18.28,412.6,20.45Z" class="cls-1"/><path data-cppathid="10011" d="M27.47,86.07c-9.85,0-15.91-1-19.54-3.43a10.65,10.65,0,0,1-4.76-7.89h7.48a4.71,4.71,0,0,0,1.87,3.3c2,1.38,5.89,2.09,14.2,2.09,10.81,0,13.65-1.63,13.65-4.18s-2.13-3.38-11.52-4c-1.76-.17-6.18-.42-7.68-.55C8,70.45,3.88,67.57,3.88,62.1c0-5.13,6.18-9.68,21-9.68,11.32,0,17.12,3,19.83,6.68a10.8,10.8,0,0,1,1.8,4H39a4.87,4.87,0,0,0-.88-1.88c-1.37-1.8-4.59-2.92-13.73-2.92-10.48,0-13.44,1.21-13.44,3.71,0,2.26,2.42,2.88,13.06,3.68,2,.12,7,.54,8.6.66,11.19.88,15,3.93,15,9.23C47.55,82.44,41.16,86.07,27.47,86.07Z" class="cls-1"/><path data-cppathid="10012" d="M82.86,85.57a15.26,15.26,0,0,1-.37-2.63c-1.51,1.54-6.56,3.13-15.2,3.13C58,86.07,52.8,84,52.8,79.3v-.62c0-5,5-7.52,18.12-7.56,3.22,0,8.77.34,11.65.63a4.21,4.21,0,0,0-.67-2.42c-1-1.34-4.05-2.47-10.48-2.47-5.88,0-8.81.71-10,1.88a2.5,2.5,0,0,0-.54,1.38H54.51a7.09,7.09,0,0,1,.38-1.79c1.46-4,6.6-6.48,16.24-6.48,10.9,0,15.78,2.43,17,7.56a23.93,23.93,0,0,1,.38,4.84c0,.84-.09,3.89-.09,5.76a18.62,18.62,0,0,0,.71,5.56ZM70.38,75.42c-6.14,0-9,.71-10.27,1.84a2,2,0,0,0-.54,1.38,1.47,1.47,0,0,0,.33,1.08c1,1.13,3.72,1.76,8.22,1.76,8.81,0,14.45-1,14.45-5.56C79.81,75.67,74.85,75.42,70.38,75.42Z" class="cls-1"/><path data-cppathid="10013" d="M125.52,85.57c-.29,0-.46-1.38-.46-11.19,0-4.55-3.09-6.89-9.89-6.89-5.81,0-11.11,2.71-11.11,6.93V85.57H97.63v-23h6.22v5.3c2.09-4.47,8.18-6,14.07-6,9.94,0,13.61,4.88,13.61,11.35,0,11.65.13,11.86.33,12.32Z" class="cls-1"/><path data-cppathid="10014" d="M141.38,59.47V52.88h6.72v6.59Zm.66,26.1c-.37-.09-.54-1.13-.54-3.47V62.61H148V82.06c0,2.59,0,3.17.59,3.51Z" class="cls-1"/><path data-cppathid="10015" d="M167.34,68.24v8.39c0,3.05,1.33,4.18,5,4.18a43.9,43.9,0,0,0,6.05-.5v4.92a34.56,34.56,0,0,1-8.06.84c-5.59,0-9.43-1.8-9.43-8.1V68.24h-7.06v-5.3h7.06c.17-1.55.17-5.89.17-5.89l6.22-.16v6h11.35v5.3Z" class="cls-1"/><path data-cppathid="10016" d="M213,85.57a16.34,16.34,0,0,1-.37-2.63c-1.51,1.54-6.56,3.13-15.2,3.13-9.31,0-14.48-2.09-14.48-6.77v-.62c0-5,5-7.52,18.11-7.56,3.22,0,8.77.34,11.65.63a4.13,4.13,0,0,0-.67-2.42c-1-1.34-4.05-2.47-10.48-2.47-5.88,0-8.8.71-10,1.88a2.52,2.52,0,0,0-.55,1.38h-6.38a7.52,7.52,0,0,1,.37-1.79c1.46-4,6.6-6.48,16.24-6.48,10.9,0,15.78,2.43,17,7.56a23.93,23.93,0,0,1,.38,4.84c0,.84-.08,3.89-.08,5.76a18.3,18.3,0,0,0,.71,5.56ZM200.48,75.42c-6.14,0-9,.71-10.27,1.84a2,2,0,0,0-.54,1.38,1.47,1.47,0,0,0,.33,1.08c1,1.13,3.72,1.76,8.23,1.76,8.81,0,14.44-1,14.44-5.56C209.92,75.67,205,75.42,200.48,75.42Z" class="cls-1"/><path data-cppathid="10017" d="M236.54,68.24v8.39c0,3.05,1.34,4.18,5,4.18a43.77,43.77,0,0,0,6.05-.5v4.92a34.39,34.39,0,0,1-8.05.84c-5.6,0-9.44-1.8-9.44-8.1V68.24h-7v-5.3h7c.17-1.55.17-5.89.17-5.89l6.22-.16v6h11.36v5.3Z" class="cls-1"/><path data-cppathid="10018" d="M255.07,59.47V52.88h6.73v6.59Zm.67,26.1c-.37-.09-.54-1.13-.54-3.47V62.61h6.51V82.06c0,2.59,0,3.17.59,3.51Z" class="cls-1"/><path data-cppathid="10019" d="M307.88,79.47c-2.84,4.09-8.93,6.6-18.37,6.6-8.89,0-15.19-2.51-18.16-6.51a10.24,10.24,0,0,1-1.83-5.6,8.81,8.81,0,0,1,1.75-5.38c3-4.1,9.06-6.73,18.24-6.73,9.52,0,15.37,2.93,18.2,6.6a9.15,9.15,0,0,1,.17,11Zm-6.26-8.81c-2.09-2-6.26-3.46-12.11-3.46s-9.77,1.33-12.15,3.51a4.79,4.79,0,0,0,.05,6.59c1.92,2.13,6.3,3.59,12.1,3.59,6.14,0,10.19-1.33,12.24-3.63A5,5,0,0,0,303.08,74,4.28,4.28,0,0,0,301.62,70.66Z" class="cls-1"/><path data-cppathid="10020" d="M344.57,85.57c-.29,0-.46-1.38-.46-11.19,0-4.55-3.09-6.89-9.89-6.89-5.81,0-11.11,2.71-11.11,6.93V85.57h-6.43v-23h6.22v5.3c2.09-4.47,8.19-6,14.07-6,9.94,0,13.61,4.88,13.61,11.35,0,11.65.13,11.86.34,12.32Z" class="cls-1"/><path data-cppathid="10021" d="M418.58,72.12c-2.3,3.18-6.35,4.55-12.44,4.55H386.43v8.9h-6.76V53h26.51c6.05,0,10.14,1.42,12.06,3.93,1.38,1.75,2.3,4.38,2.3,8A12.1,12.1,0,0,1,418.58,72.12ZM413,61.39c-1-1.62-3.63-2.58-8-2.58H386.39V70.54h18.49c4.64,0,7-.88,8.1-2.55a6,6,0,0,0,.67-3.3A6.84,6.84,0,0,0,413,61.39Z" class="cls-1"/><path data-cppathid="10022" d="M452.89,68.78a39.41,39.41,0,0,0-7.35-.66c-5.64,0-11,3-11,9.14v8.31h-6.47v-23h6.26v5.88c1.13-3.21,5.55-5.8,11.06-6.13a33.53,33.53,0,0,1,7.48.2Z" class="cls-1"/><path data-cppathid="10023" d="M493.46,79.47c-2.84,4.09-8.94,6.6-18.37,6.6-8.89,0-15.2-2.51-18.16-6.51a10.17,10.17,0,0,1-1.84-5.6,8.76,8.76,0,0,1,1.76-5.38c3-4.1,9.06-6.73,18.24-6.73,9.52,0,15.36,2.93,18.2,6.6a9.19,9.19,0,0,1,.17,11Zm-6.26-8.81c-2.09-2-6.27-3.46-12.11-3.46s-9.77,1.33-12.15,3.51a4.8,4.8,0,0,0,0,6.59c1.92,2.13,6.31,3.59,12.11,3.59,6.14,0,10.19-1.33,12.23-3.63A5,5,0,0,0,488.66,74,4.32,4.32,0,0,0,487.2,70.66Z" class="cls-1"/><path data-cppathid="10024" d="M531.69,71.79c-.79-3-4.72-4.59-12.19-4.59-5.93,0-10.23,1.25-12.31,3.67a5.07,5.07,0,0,0-1.13,3.26,5.21,5.21,0,0,0,1.17,3.3c1.88,2.33,6.51,3.46,12.31,3.46s9-.83,10.65-2.17a5.9,5.9,0,0,0,1.46-1.84h6.51A9.25,9.25,0,0,1,536.24,81c-2.71,3.09-7.93,5.1-16.74,5.1-9.14,0-15.28-2.26-18-5.89A10,10,0,0,1,499.55,74a9.53,9.53,0,0,1,2-6c3-3.8,9.22-6.18,18-6.18,9,0,14.49,2.26,17,6a10.16,10.16,0,0,1,1.5,3.92Z" class="cls-1"/><path data-cppathid="10025" d="M579.9,80.93c-2.54,2.63-7.89,5.18-17.45,5.18-8.77,0-15.15-1.92-18-6.26a10.71,10.71,0,0,1-1.76-6.06,9.81,9.81,0,0,1,1.8-5.63c3-4,9.52-6.35,17.91-6.35,10.31,0,17.24,3.59,18.87,10a22.28,22.28,0,0,1,.58,4.38H549.13A4.09,4.09,0,0,0,551,78.55c2,1.71,5.89,2.8,11.82,2.8a25.83,25.83,0,0,0,9.47-1.46,6.82,6.82,0,0,0,2-1.5h7.09A7,7,0,0,1,579.9,80.93ZM574,69.62c-1.54-1.63-5.59-2.92-11.73-2.92-5.84,0-10.48,1.25-12.1,3.13a3.71,3.71,0,0,0-1,2.17h26.18A3.41,3.41,0,0,0,574,69.62Z" class="cls-1"/><path data-cppathid="10026" d="M617.59,66.32V52.67h6.35V82.81a22.81,22.81,0,0,0,.25,2.76h-6.26l-.17-4.26c-2,3.09-7.93,4.72-14,4.72-8.43,0-13.86-2.09-16.41-5.81a10.45,10.45,0,0,1-1.92-6.09,11,11,0,0,1,1.88-6.31c2.51-3.79,7.68-6,15.7-6C609.74,61.85,615.25,63.23,617.59,66.32Zm-24.46,4.22a5.39,5.39,0,0,0-1.25,3.55,5.13,5.13,0,0,0,1.25,3.5c2,2.26,6.09,3.34,12.1,3.34s10-1.17,11.61-3.67a5.39,5.39,0,0,0,.88-3.17,5.14,5.14,0,0,0-1.3-3.59c-2-2.17-5.92-3.3-11.73-3.3S594.88,68.37,593.13,70.54Z" class="cls-1"/><path data-cppathid="10027" d="M667.14,85.57h-6.26l-.17-4.14c-3,3.89-8.77,4.72-14.19,4.72-8.4,0-13.49-2.5-13.49-9.81,0-13.23-.17-13.4-.42-13.73h6.64c.21,0,.25,5.63.25,11.56,0,5,2.46,6.55,9.6,6.55,6.85,0,11.4-2.83,11.4-6.68V62.61H667V80.93C667,84.19,667.14,85.44,667.14,85.57Z" class="cls-1"/><path data-cppathid="10028" d="M701.57,68.78a39.3,39.3,0,0,0-7.34-.66c-5.64,0-11,3-11,9.14v8.31h-6.47v-23H683v5.88c1.12-3.21,5.55-5.8,11.06-6.13a33.41,33.41,0,0,1,7.47.2Z" class="cls-1"/><path data-cppathid="10029" d="M741.1,80.93c-2.54,2.63-7.89,5.18-17.45,5.18-8.77,0-15.15-1.92-18-6.26a10.71,10.71,0,0,1-1.76-6.06,9.81,9.81,0,0,1,1.8-5.63c3-4,9.52-6.35,17.91-6.35,10.31,0,17.24,3.59,18.87,10a22.28,22.28,0,0,1,.58,4.38H710.33a4.09,4.09,0,0,0,1.88,2.38c2,1.71,5.89,2.8,11.82,2.8a25.83,25.83,0,0,0,9.47-1.46,6.82,6.82,0,0,0,2-1.5h7.1A7.15,7.15,0,0,1,741.1,80.93Zm-5.93-11.31c-1.54-1.63-5.59-2.92-11.73-2.92-5.84,0-10.48,1.25-12.1,3.13a3.71,3.71,0,0,0-1,2.17h26.18A3.41,3.41,0,0,0,735.17,69.62Z" class="cls-1"/><path data-cppathid="10030" d="M764.72,86.07c-12.31,0-16.78-1.84-18.16-6.43a5.83,5.83,0,0,1-.29-1.55h6.31a2,2,0,0,0,.46,1.26c1,1.12,4,1.75,11.73,1.75,9.72,0,11.1-1.09,11.1-2.51,0-1.58-1.25-1.92-9.68-2.33-1.63-.09-4.56-.3-6.52-.42-9.22-.54-12.81-2.67-12.81-6.85,0-4.59,5.34-7.18,16-7.18s15.57,1.59,17.32,5.89a6.77,6.77,0,0,1,.38,1.84h-6.31a2.41,2.41,0,0,0-.37-.88c-1-1.09-3.84-1.8-10.61-1.8-9.18,0-10.35.88-10.35,2.18s1,1.67,9,2.08c2,.13,5,.29,7,.38,9.73.37,13.07,2.5,13.07,7C782,83.44,777.29,86.07,764.72,86.07Z" class="cls-1"/></svg>