<?xml version="1.0" encoding="UTF-8"?>
<svg xmlns="http://www.w3.org/2000/svg" onmouseup="{ if(window.parent.document.onmouseup) window.parent.document.onmouseup(arguments[0]);}" viewBox="0 0 325.63 96.69" data-name="Capa 1" id="Capa_1"><defs><style>.cls-1{fill:#fff;}</style></defs><title/><path data-cppathid="10000" d="M38.51,63.73h-7.3l21.7-32.61H60.6L81.8,63.73H74.25l-4.89-7.27H43.48Zm20-24.3-1.92-3.21-2,3.21L46.94,50.58h19Z" class="cls-1"/><path data-cppathid="10001" d="M115.74,50c-.8-3-4.72-4.59-12.19-4.59-5.93,0-10.23,1.25-12.32,3.67a5.07,5.07,0,0,0-1.13,3.26,5.21,5.21,0,0,0,1.17,3.3c1.88,2.34,6.51,3.46,12.32,3.46s9-.83,10.64-2.17A5.76,5.76,0,0,0,115.69,55h6.52a9.39,9.39,0,0,1-1.92,4.1c-2.72,3.09-7.93,5.09-16.74,5.09-9.15,0-15.28-2.25-18-5.89a10,10,0,0,1-1.92-6.18,9.53,9.53,0,0,1,2-6c3-3.79,9.23-6.17,18-6.17,9,0,14.48,2.25,17,6a9.85,9.85,0,0,1,1.5,3.92Z" class="cls-1"/><path data-cppathid="10002" d="M138.15,46.4v8.39c0,3.05,1.33,4.18,5,4.18a43.92,43.92,0,0,0,6.06-.5v4.92a34.56,34.56,0,0,1-8.06.84c-5.59,0-9.43-1.8-9.43-8.1V46.4h-7.06V41.1h7.06c.16-1.54.16-5.89.16-5.89l6.22-.16V41.1h11.36v5.3Z" class="cls-1"/><path data-cppathid="10003" d="M156.68,37.64V31h6.72v6.6Zm.67,26.09c-.38-.08-.55-1.13-.55-3.47V40.77h6.52V60.22c0,2.59,0,3.17.58,3.51Z" class="cls-1"/><path data-cppathid="10004" d="M192.08,63.73h-7.64L168,40.77h7l13.24,17.91,13.19-17.91h6.81Z" class="cls-1"/><path data-cppathid="10005" d="M212.65,37.64V31h6.72v6.6Zm.67,26.09c-.38-.08-.54-1.13-.54-3.47V40.77h6.51V60.22c0,2.59,0,3.17.58,3.51Z" class="cls-1"/><path data-cppathid="10006" d="M238.61,46.4v8.39c0,3.05,1.34,4.18,5,4.18a43.92,43.92,0,0,0,6.06-.5v4.92a34.56,34.56,0,0,1-8.06.84c-5.6,0-9.44-1.8-9.44-8.1V46.4h-7V41.1h7c.17-1.54.17-5.89.17-5.89l6.22-.16V41.1h11.36v5.3Z" class="cls-1"/><path data-cppathid="10007" d="M271.05,71.49h-7.48l5.77-7.8L252.26,40.77h6.93l13.65,17.74L285.7,40.77h6.81Z" class="cls-1"/></svg>