<?xml version="1.0" encoding="UTF-8"?>
<svg xmlns="http://www.w3.org/2000/svg" onmouseup="{ if(window.parent.document.onmouseup) window.parent.document.onmouseup(arguments[0]);}" viewBox="0 0 291.31 29.46" data-name="Capa 1" id="Capa_1"><defs><style>.cls-1{fill:none;stroke:#fff;stroke-width:0.25px;}</style></defs><path data-cppathid="10000" transform="translate(-26.95 -14.47)" d="M64.14,32.72c-2.22,2.55-5.88,3.7-10.69,3.7H37.59v7H27.07v-28H53.23c4.31,0,7.72.82,9.84,2.44s3.41,4.27,3.41,8.11A9.82,9.82,0,0,1,64.14,32.72Zm-8.93-9c-.72-.9-2.19-1.33-4.49-1.33H37.55v7.29H50.72c2.37,0,3.88-.4,4.6-1.4A4,4,0,0,0,55.85,26,3.62,3.62,0,0,0,55.21,23.71Z" class="cls-1"/><path data-cppathid="10001" transform="translate(-26.95 -14.47)" d="M75.19,43.38H63.92l19-28h12l18,28H101.36L98.49,39H78.17Zm14.75-18L88.51,23,87,25.43l-4.6,6.86h12S89.94,25.43,89.94,25.43Z" class="cls-1"/><path data-cppathid="10002" transform="translate(-26.95 -14.47)" d="M154,28.88a8,8,0,0,1-5.38,2.87l10.3,11.63h-11.6l-8.93-10.3H126.8v10.3H116.28v-28h26.81c5.06,0,8.43,1.08,10.37,2.76a6.82,6.82,0,0,1,2.15,5.46A8.78,8.78,0,0,1,154,28.88Zm-8.83-5.38c-.65-.94-1.76-1.19-3.55-1.19H126.8v4.56h15c2,0,3-.29,3.41-1a2.16,2.16,0,0,0,.28-1.19A1.91,1.91,0,0,0,145.17,23.5Z" class="cls-1"/><path data-cppathid="10003" transform="translate(-26.95 -14.47)" d="M184.46,22.71V43.38H173.7V22.71H159V15.35h40.2v7.36Z" class="cls-1"/><path data-cppathid="10004" transform="translate(-26.95 -14.47)" d="M276.36,20.19a11.68,11.68,0,0,1,3.63,9,12.23,12.23,0,0,1-3.59,9.08c-3.7,3.77-10.3,5.53-19.06,5.53-8.61,0-15-1.9-18.87-5.6a12,12,0,0,1-3.77-9.08,11.24,11.24,0,0,1,3.55-8.51c4.16-4.16,10.48-6,19.09-6S272.38,16.39,276.36,20.19Zm-7.1,9c0-3.16-3.05-6.75-12-6.75-8.54,0-11.84,3.52-11.84,6.75,0,3.59,3.48,6.82,11.88,6.82S269.26,32.83,269.26,29.24Z" class="cls-1"/><path data-cppathid="10005" transform="translate(-26.95 -14.47)" d="M283.29,43.38v-7.9c16.14-4,21.28-5.35,21.28-9.11V25.18c0-1.79-1.51-2.9-5-2.9-2.73,0-4.23,1-4.73,2.65a16.22,16.22,0,0,0-.29,2.84H283.57a19.16,19.16,0,0,1,.65-4.38c1.22-4.7,5.88-8.51,16.36-8.51,12.82,0,16.08,4.6,16.08,8.94v1.54c0,4.77-4.7,8.47-12.88,10.19h14.35v7.83Z" class="cls-1"/></svg>